<?xml version="1.0" encoding="UTF-8"?>
<svg width="345px" height="130px" viewBox="0 0 345 130" version="1.1" xmlns="http://www.w3.org/2000/svg" xmlns:xlink="http://www.w3.org/1999/xlink">
    <!-- Generator: Sketch 61 (89581) - https://sketch.com -->
    <title>logo-club</title>
    <desc>Created with Sketch.</desc>
    <g id="Page-1" stroke="none" stroke-width="1" fill="none" fill-rule="evenodd">
        <g id="logo-club" fill-rule="nonzero">
            <g id="brand">
                <circle id="Oval-6" fill="#2D50C6" cx="65" cy="65" r="65"></circle>
                <circle id="Oval-6" fill="#10437D" cx="64.5" cy="63.5" r="45.5"></circle>
                <circle id="Oval-6" fill="#FFFFFF" cx="64.5" cy="63.5" r="27.5"></circle>
            </g>
            <g id="Text" transform="translate(161.000000, 0.000000)">
                <path d="M34.016,35.072 C34.2720013,35.072 34.5279987,35.1199995 34.784,35.216 C35.0400013,35.3120005 35.2853322,35.4773322 35.52,35.712 L39.808,40.224 C37.9306573,42.6773456 35.5786808,44.5279938 32.752,45.776 C29.9253192,47.0240062 26.5813526,47.648 22.72,47.648 C19.178649,47.648 16.0053474,47.0453394 13.2,45.84 C10.3946526,44.6346606 8.01600976,42.9706773 6.064,40.848 C4.11199024,38.7253227 2.61333856,36.2080146 1.568,33.296 C0.52266144,30.3839854 0,27.2213504 0,23.808 C0,20.3306493 0.59732736,17.1360146 1.792,14.224 C2.98667264,11.3119854 4.65598928,8.8000106 6.8,6.688 C8.9440107,4.5759894 11.5093184,2.9333392 14.496,1.76 C17.4826816,0.5866608 20.7786486,-3.55271368e-15 24.384,-3.55271368e-15 C26.1333421,-3.55271368e-15 27.7813256,0.1546651 29.328,0.464 C30.8746744,0.7733349 32.3199933,1.1999973 33.664,1.744 C35.0080067,2.2880027 36.2453277,2.9386629 37.376,3.696 C38.5066723,4.4533371 39.509329,5.2906621 40.384,6.208 L36.736,11.104 C36.5013322,11.4026682 36.2240016,11.6746654 35.904,11.92 C35.5839984,12.1653346 35.1360029,12.288 34.56,12.288 C34.1759981,12.288 33.813335,12.2026675 33.472,12.032 C33.130665,11.8613325 32.7680019,11.6533346 32.384,11.408 C32,11.1626654 31.578669,10.8960014 31.12,10.608 C30.661331,10.3199986 30.1173365,10.0533346 29.488,9.808 C28.8586635,9.5626654 28.1226709,9.3546675 27.28,9.184 C26.4373291,9.0133325 25.4506723,8.928 24.32,8.928 C22.3573235,8.928 20.5653414,9.2746632 18.944,9.968 C17.3226586,10.6613368 15.9306725,11.6533269 14.768,12.944 C13.6053275,14.2346731 12.6986699,15.7973242 12.048,17.632 C11.3973301,19.4666758 11.072,21.5253219 11.072,23.808 C11.072,26.1973453 11.3973301,28.3199907 12.048,30.176 C12.6986699,32.0320093 13.5839944,33.5946603 14.704,34.864 C15.8240056,36.1333397 17.1306592,37.0986634 18.624,37.76 C20.1173408,38.4213366 21.7173248,38.752 23.424,38.752 C24.4053382,38.752 25.3013293,38.7040005 26.112,38.608 C26.9226707,38.5119995 27.6746632,38.3466678 28.368,38.112 C29.0613368,37.8773322 29.7226635,37.5733352 30.352,37.2 C30.9813365,36.8266648 31.6159968,36.3626694 32.256,35.808 C32.5120013,35.5946656 32.7893318,35.4186674 33.088,35.28 C33.3866682,35.1413326 33.6959984,35.072 34.016,35.072 Z M55.916,13.952 L55.916,35.008 C55.916,36.6506749 56.2893296,37.9199955 57.036,38.816 C57.7826704,39.7120045 58.8813261,40.16 60.332,40.16 C61.4200054,40.16 62.4386619,39.9360022 63.388,39.488 C64.3373381,39.0399978 65.2599955,38.4106707 66.156,37.6 L66.156,13.952 L76.076,13.952 L76.076,47.136 L69.932,47.136 C68.6946605,47.136 67.8840019,46.5813389 67.5,45.472 L66.892,43.552 C66.2519968,44.1706698 65.5906701,44.7306642 64.908,45.232 C64.2253299,45.7333358 63.4946705,46.1599982 62.716,46.512 C61.9373294,46.8640018 61.1000045,47.1413323 60.204,47.344 C59.3079955,47.5466677 58.326672,47.648 57.26,47.648 C55.4466576,47.648 53.8413403,47.3333365 52.444,46.704 C51.0466597,46.0746635 49.8680048,45.1946723 48.908,44.064 C47.9479952,42.9333277 47.2226691,41.6000077 46.732,40.064 C46.2413309,38.5279923 45.996,36.8426758 45.996,35.008 L45.996,13.952 L55.916,13.952 Z M85.656,57.664 L85.656,13.952 L91.8,13.952 C92.4186697,13.952 92.9359979,14.0906653 93.352,14.368 C93.768002,14.6453347 94.0613324,15.0613306 94.232,15.616 L94.968,18.048 C95.6080032,17.3439965 96.2959963,16.7040029 97.032,16.128 C97.7680036,15.5519971 98.5573291,15.0560021 99.4,14.64 C100.242671,14.2239979 101.149328,13.8986678 102.12,13.664 C103.090671,13.4293322 104.151994,13.312 105.304,13.312 C107.032009,13.312 108.631993,13.6959962 110.104,14.464 C111.576007,15.2320038 112.845328,16.3413261 113.912,17.792 C114.978672,19.2426739 115.815997,21.0186562 116.424,23.12 C117.032003,25.2213438 117.336,27.60532 117.336,30.272 C117.336,32.7680125 116.989337,35.0719894 116.296,37.184 C115.602663,39.2960106 114.632006,41.1306589 113.384,42.688 C112.135994,44.2453411 110.642675,45.461329 108.904,46.336 C107.165325,47.210671 105.240011,47.648 103.128,47.648 C101.399991,47.648 99.949339,47.4026691 98.776,46.912 C97.6026608,46.4213309 96.5360048,45.7600042 95.576,44.928 L95.576,57.664 L85.656,57.664 Z M101.848,20.896 C101.122663,20.896 100.46667,20.9653326 99.88,21.104 C99.29333,21.2426674 98.7493358,21.4399987 98.248,21.696 C97.7466641,21.9520013 97.2826688,22.2773314 96.856,22.672 C96.4293312,23.0666686 96.0026688,23.5199974 95.576,24.032 L95.576,38.112 C96.3226704,38.9440042 97.1333289,39.5253317 98.008,39.856 C98.882671,40.1866683 99.799995,40.352 100.76,40.352 C101.677338,40.352 102.519996,40.1706685 103.288,39.808 C104.056004,39.4453315 104.722664,38.864004 105.288,38.064 C105.853336,37.263996 106.295998,36.2240064 106.616,34.944 C106.936002,33.6639936 107.096,32.1066758 107.096,30.272 C107.096,28.5226579 106.968001,27.0506726 106.712,25.856 C106.455999,24.6613274 106.098669,23.6960037 105.64,22.96 C105.181331,22.2239963 104.632003,21.6960016 103.992,21.376 C103.351997,21.0559984 102.637337,20.896 101.848,20.896 Z M138.756,13.44 C140.953344,13.44 142.963991,13.7813299 144.788,14.464 C146.612009,15.1466701 148.179993,16.1386602 149.492,17.44 C150.804006,18.7413398 151.827996,20.3359906 152.564,22.224 C153.300004,24.1120094 153.668,26.2506547 153.668,28.64 C153.668,29.3866704 153.636,29.9946643 153.572,30.464 C153.508,30.9333357 153.390667,31.3066653 153.22,31.584 C153.049332,31.8613347 152.820001,32.0533328 152.532,32.16 C152.243998,32.2666672 151.876002,32.32 151.428,32.32 L132.292,32.32 C132.612002,35.0933472 133.45466,37.1039938 134.82,38.352 C136.18534,39.6000062 137.945322,40.224 140.1,40.224 C141.252006,40.224 142.243996,40.0853347 143.076,39.808 C143.908004,39.5306653 144.64933,39.221335 145.3,38.88 C145.95067,38.538665 146.547997,38.2293347 147.092,37.952 C147.636003,37.6746653 148.206664,37.536 148.804,37.536 C149.593337,37.536 150.190665,37.8239971 150.596,38.4 L153.476,41.952 C152.451995,43.1253392 151.348006,44.0799963 150.164,44.816 C148.979994,45.5520037 147.764006,46.1279979 146.516,46.544 C145.267994,46.9600021 144.020006,47.2479992 142.772,47.408 C141.523994,47.5680008 140.334672,47.648 139.204,47.648 C136.878655,47.648 134.697343,47.2693371 132.66,46.512 C130.622656,45.7546629 128.841341,44.6293408 127.316,43.136 C125.790659,41.6426592 124.585338,39.7866778 123.7,37.568 C122.814662,35.3493222 122.372,32.7680147 122.372,29.824 C122.372,27.6053222 122.750663,25.5040099 123.508,23.52 C124.265337,21.5359901 125.353326,19.7973408 126.772,18.304 C128.190674,16.8106592 129.90799,15.626671 131.924,14.752 C133.94001,13.877329 136.217321,13.44 138.756,13.44 Z M138.948,20.288 C137.049324,20.288 135.566672,20.8266613 134.5,21.904 C133.433328,22.9813387 132.729335,24.5333232 132.388,26.56 L144.772,26.56 C144.772,25.7706627 144.670668,25.0026704 144.468,24.256 C144.265332,23.5093296 143.934669,22.8426696 143.476,22.256 C143.017331,21.6693304 142.41467,21.1946685 141.668,20.832 C140.92133,20.4693315 140.014672,20.288 138.948,20.288 Z M161.264,47.136 L161.264,13.952 L167.152,13.952 C167.642669,13.952 168.053332,13.9946662 168.384,14.08 C168.714668,14.1653338 168.991999,14.2986658 169.216,14.48 C169.440001,14.6613342 169.610666,14.9013318 169.728,15.2 C169.845334,15.4986682 169.946666,15.8613312 170.032,16.288 L170.576,19.392 C171.792006,17.5146573 173.157326,16.0320054 174.672,14.944 C176.186674,13.8559946 177.839991,13.312 179.632,13.312 C181.146674,13.312 182.362662,13.674663 183.28,14.4 L182,21.696 C181.914666,22.1440022 181.744001,22.4586658 181.488,22.64 C181.231999,22.8213342 180.890669,22.912 180.464,22.912 C180.101331,22.912 179.674669,22.8640005 179.184,22.768 C178.693331,22.6719995 178.07467,22.624 177.328,22.624 C174.72532,22.624 172.677341,24.0106528 171.184,26.784 L171.184,47.136 L161.264,47.136 Z" id="Cuper" fill="#324277"></path>
                <path d="M93.306,114.293 C93.499334,114.293 93.663666,114.360666 93.799,114.496 L94.959,115.743 C94.108329,116.651671 93.180338,117.468496 92.175,118.1935 C91.169662,118.918504 90.072506,119.537164 88.8835,120.0495 C87.694494,120.561836 86.389507,120.958165 84.9685,121.2385 C83.547493,121.518835 81.986342,121.659 80.285,121.659 C77.442986,121.659 74.837845,121.161172 72.4695,120.1655 C70.101155,119.169828 68.071175,117.758509 66.3795,115.9315 C64.687825,114.104491 63.368338,111.89568 62.421,109.305 C61.473662,106.71432 61,103.833682 61,100.663 C61,97.5503178 61.488162,94.7083462 62.4645,92.137 C63.440838,89.5656538 64.813491,87.3568426 66.5825,85.5105 C68.351509,83.6641574 70.468488,82.2335051 72.9335,81.2185 C75.398512,80.2034949 78.119652,79.696 81.097,79.696 C82.585674,79.696 83.94866,79.8071656 85.186,80.0295 C86.42334,80.2518344 87.578495,80.5708313 88.6515,80.9865 C89.724505,81.4021687 90.734662,81.9193302 91.682,82.538 C92.629338,83.1566698 93.557329,83.8719959 94.466,84.684 L93.567,85.989 C93.412333,86.2210012 93.170668,86.337 92.842,86.337 C92.667999,86.337 92.445668,86.235501 92.175,86.0325 C91.904332,85.829499 91.561169,85.5781682 91.1455,85.2785 C90.729831,84.9788318 90.22717,84.6501685 89.6375,84.2925 C89.04783,83.9348315 88.347004,83.6061682 87.535,83.3065 C86.722996,83.0068318 85.785339,82.755501 84.722,82.5525 C83.658661,82.349499 82.45034,82.248 81.097,82.248 C78.602988,82.248 76.31201,82.6781624 74.224,83.5385 C72.13599,84.3988376 70.338008,85.626492 68.83,87.2215 C67.321992,88.816508 66.147504,90.749822 65.3065,93.0215 C64.465496,95.293178 64.045,97.8403192 64.045,100.663 C64.045,103.563014 64.460663,106.153655 65.292,108.435 C66.123337,110.716345 67.273659,112.644825 68.743,114.2205 C70.212341,115.796174 71.94749,117.004496 73.9485,117.8455 C75.94951,118.686504 78.119655,119.107 80.459,119.107 C81.928341,119.107 83.238161,119.010334 84.3885,118.817 C85.538839,118.623666 86.597329,118.333669 87.564,117.947 C88.530671,117.560331 89.429663,117.086669 90.261,116.526 C91.092337,115.96533 91.913996,115.308004 92.726,114.554 C92.822667,114.476666 92.9145,114.413834 93.0015,114.3655 C93.0885,114.317166 93.189999,114.293 93.306,114.293 Z M108.193875,79 L108.193875,121.195 L105.438875,121.195 L105.438875,79 L108.193875,79 Z M122.18275,92.34 L122.18275,110.784 C122.18275,113.49068 122.80141,115.612492 124.03875,117.1495 C125.27609,118.686508 127.161071,119.455 129.69375,119.455 C131.569093,119.455 133.318742,118.976505 134.94275,118.0195 C136.566758,117.062495 138.02641,115.733342 139.32175,114.032 L139.32175,92.34 L142.10575,92.34 L142.10575,121.195 L140.56875,121.195 C140.027414,121.195 139.747083,120.943669 139.72775,120.441 L139.46675,116.149 C138.132743,117.811675 136.590925,119.145662 134.84125,120.151 C133.091575,121.156338 131.143761,121.659 128.99775,121.659 C127.393075,121.659 125.991423,121.407669 124.79275,120.905 C123.594077,120.402331 122.598421,119.677338 121.80575,118.73 C121.013079,117.782662 120.413752,116.642007 120.00775,115.308 C119.601748,113.973993 119.39875,112.466008 119.39875,110.784 L119.39875,92.34 L122.18275,92.34 Z M153.513625,121.195 L153.513625,79 L156.297625,79 L156.297625,97.386 C157.573631,95.6846582 159.052617,94.3410049 160.734625,93.355 C162.416633,92.3689951 164.311281,91.876 166.418625,91.876 C169.956643,91.876 172.716448,93.0988211 174.698125,95.5445 C176.679802,97.9901789 177.670625,101.668309 177.670625,106.579 C177.670625,108.686344 177.395128,110.653491 176.844125,112.4805 C176.293122,114.307509 175.48113,115.892827 174.408125,117.2365 C173.33512,118.580173 172.020466,119.638663 170.464125,120.412 C168.907784,121.185337 167.114635,121.572 165.084625,121.572 C163.073948,121.572 161.343632,121.180504 159.893625,120.3975 C158.443618,119.614496 157.19663,118.459341 156.152625,116.932 L155.978625,120.47 C155.920625,120.953336 155.659627,121.195 155.195625,121.195 L153.513625,121.195 Z M165.635625,94.08 C163.721615,94.08 161.991299,94.5729951 160.444625,95.559 C158.897951,96.5450049 157.515631,97.9176579 156.297625,99.677 L156.297625,114.902 C157.399631,116.564675 158.617618,117.729497 159.951625,118.3965 C161.285632,119.063503 162.822616,119.397 164.562625,119.397 C166.263967,119.397 167.752619,119.08767 169.028625,118.469 C170.304631,117.85033 171.372787,116.975506 172.233125,115.8445 C173.093463,114.713494 173.741123,113.360174 174.176125,111.7845 C174.611127,110.208825 174.828625,108.473676 174.828625,106.579 C174.828625,102.286979 174.035966,99.1308434 172.450625,97.1105 C170.865284,95.0901566 168.59364,94.08 165.635625,94.08 Z" id="Club" fill="#B3AFAF"></path>
            </g>
        </g>
    </g>
</svg>